<svg preserveAspectRatio="none" width="100%" height="100%" overflow="visible" style="display: block;" viewBox="0 0 14.3365 14.3365" fill="none" xmlns="http://www.w3.org/2000/svg">
<path id="Vector" d="M12.5016 0.501628V3.16829M13.835 1.83496H11.1683M6.51293 1.04426C6.54149 0.891332 6.62265 0.753207 6.74233 0.653809C6.86201 0.554411 7.01269 0.5 7.16826 0.5C7.32384 0.5 7.47452 0.554411 7.5942 0.653809C7.71388 0.753207 7.79503 0.891332 7.8236 1.04426L8.52426 4.7496C8.57403 5.01303 8.70205 5.25534 8.89162 5.44491C9.08119 5.63448 9.3235 5.7625 9.58693 5.81226L13.2923 6.51293C13.4452 6.54149 13.5833 6.62265 13.6827 6.74233C13.7821 6.86201 13.8365 7.01269 13.8365 7.16826C13.8365 7.32384 13.7821 7.47452 13.6827 7.5942C13.5833 7.71388 13.4452 7.79503 13.2923 7.8236L9.58693 8.52426C9.3235 8.57403 9.08119 8.70205 8.89162 8.89162C8.70205 9.08119 8.57403 9.3235 8.52426 9.58693L7.8236 13.2923C7.79503 13.4452 7.71388 13.5833 7.5942 13.6827C7.47452 13.7821 7.32384 13.8365 7.16826 13.8365C7.01269 13.8365 6.86201 13.7821 6.74233 13.6827C6.62265 13.5833 6.54149 13.4452 6.51293 13.2923L5.81226 9.58693C5.7625 9.3235 5.63448 9.08119 5.44491 8.89162C5.25534 8.70205 5.01303 8.57403 4.7496 8.52426L1.04426 7.8236C0.891332 7.79503 0.753207 7.71388 0.653809 7.5942C0.554411 7.47452 0.5 7.32384 0.5 7.16826C0.5 7.01269 0.554411 6.86201 0.653809 6.74233C0.753207 6.62265 0.891332 6.54149 1.04426 6.51293L4.7496 5.81226C5.01303 5.7625 5.25534 5.63448 5.44491 5.44491C5.63448 5.25534 5.7625 5.01303 5.81226 4.7496L6.51293 1.04426ZM3.16829 12.5016C3.16829 13.238 2.57134 13.835 1.83496 13.835C1.09858 13.835 0.501628 13.238 0.501628 12.5016C0.501628 11.7652 1.09858 11.1683 1.83496 11.1683C2.57134 11.1683 3.16829 11.7652 3.16829 12.5016Z" stroke="currentColor" stroke-linecap="round" stroke-linejoin="round"/>
</svg>
