<svg preserveAspectRatio="none" width="100%" height="100%" overflow="visible" style="display: block;" viewBox="0 0 14.3343 13.6665" fill="none" xmlns="http://www.w3.org/2000/svg">
<path id="Vector" d="M6.50114 5.83317L8.50114 7.83317M5.81383 10.5205L13.4198 2.91582C13.6852 2.65043 13.8343 2.29048 13.8343 1.91516C13.8343 1.53983 13.6852 1.17988 13.4198 0.91449C13.1544 0.649096 12.7945 0.5 12.4192 0.5C12.0438 0.5 11.6839 0.649096 11.4185 0.91449L3.8125 8.52049M3.50119 13.1665C3.96268 13.1665 4.41381 13.0297 4.79752 12.7733C5.18124 12.5169 5.48031 12.1525 5.65691 11.7261C5.83352 11.2997 5.87972 10.8306 5.78969 10.378C5.69966 9.92534 5.47743 9.50958 5.15111 9.18326C4.82479 8.85693 4.40903 8.63471 3.9564 8.54467C3.50378 8.45464 3.03463 8.50085 2.60827 8.67745C2.1819 8.85406 1.81749 9.15313 1.5611 9.53684C1.30471 9.92056 1.16786 10.3717 1.16786 10.8332C1.16798 11.2769 0.999227 11.704 0.69586 12.0278C0.602384 12.1211 0.538698 12.24 0.512876 12.3695C0.487053 12.4989 0.500258 12.6332 0.550814 12.7551C0.601371 12.8771 0.687003 12.9813 0.796856 13.0545C0.906708 13.1278 1.03583 13.1667 1.16786 13.1665H3.50119Z" stroke="currentColor" stroke-linecap="round" stroke-linejoin="round"/>
</svg>
