<svg preserveAspectRatio="none" width="100%" height="100%" overflow="visible" style="display: block;" viewBox="0 0 13.0069 13.1222" fill="none" xmlns="http://www.w3.org/2000/svg">
<path id="Vector" d="M3.84016 7.95557V8.2889M9.1735 7.95557V8.2889M6.50688 1.95558C6.95355 1.95558 7.40688 2.01558 7.84021 2.12891C9.02688 0.79558 11.1935 0.23558 12.1202 0.622247C13.0535 1.00891 11.8402 5.28891 11.8402 5.28891C12.2202 6.00225 12.5069 6.78225 12.5069 7.58225C12.5069 10.5556 9.82021 12.6222 6.50688 12.6222C3.19355 12.6222 0.506881 10.6222 0.506881 7.58225C0.506881 6.74891 0.840214 5.98225 1.17355 5.28891C1.17355 5.28891 -0.0864525 1.00891 0.840214 0.622247C1.76688 0.23558 3.98688 0.77558 5.17355 2.10891C5.6109 2.00832 6.05811 1.95689 6.50688 1.95558ZM6.00683 9.45557H7.00683L6.50683 9.95557L6.00683 9.45557Z" stroke="currentColor" stroke-linecap="round" stroke-linejoin="round"/>
</svg>
