<svg viewBox="0 0 16 16" fill="none" xmlns="http://www.w3.org/2000/svg">
  <g transform="translate(1.33, 3.33) scale(0.9306, 0.9040)">
    <path d="M8.48995 6.66614C8.13738 6.97734 7.67424 7.16618 7.16699 7.16618C6.06242 7.16618 5.16699 6.27075 5.16699 5.16618C5.16699 4.65896 5.35581 4.19583 5.66699 3.84327M0.54167 5.39826C0.48611 5.24858 0.48611 5.08393 0.54167 4.93426C1.0828 3.62216 2.00135 2.50028 3.18085 1.71085C4.36035 0.921427 5.7477 0.5 7.167 0.5C8.58631 0.5 9.97365 0.921427 11.1532 1.71085C12.3327 2.50028 13.2512 3.62216 13.7923 4.93426C13.8479 5.08393 13.8479 5.24858 13.7923 5.39826C13.2512 6.71035 12.3327 7.83223 11.1532 8.62166C9.97365 9.41108 8.58631 9.83251 7.167 9.83251C5.7477 9.83251 4.36035 9.41108 3.18085 8.62166C2.00135 7.83223 1.0828 6.71035 0.54167 5.39826Z" stroke="currentColor" stroke-linecap="round" stroke-linejoin="round"/>
  </g>
  <line x1="2" y1="3" x2="13" y2="12" stroke="currentColor" stroke-linecap="round" stroke-linejoin="round"/>
</svg>
