<svg viewBox="0 0 16 16" fill="none" xmlns="http://www.w3.org/2000/svg">
  <g transform="translate(1.95, 1)">
    <path fill-rule="evenodd" clip-rule="evenodd" d="M5.261 0.06075C5.986 -0.02025 6.415 -0.02025 7.194 0.06075C8.57293 0.264845 9.85122 0.902235 10.844 1.88075C10.1731 2.51489 9.51106 3.15828 8.858 3.81075C7.60733 2.75075 6.21133 2.50608 4.67 3.07675C3.53933 3.59675 2.752 4.43942 2.308 5.60475C1.58244 5.06458 0.866332 4.51183 0.16 3.94675C0.110913 3.92091 0.054848 3.91145 0 3.91975C1.122 1.75642 2.87533 0.46975 5.26 0.05975" fill="#F44336"/>
  </g>
  <g transform="translate(1.25, 4.92)">
    <path fill-rule="evenodd" clip-rule="evenodd" d="M0.696252 0.00318869C0.752919 -0.00547798 0.806586 0.00352197 0.857252 0.0301886C1.56358 0.595269 2.27969 1.14802 3.00525 1.68819C2.89108 2.14225 2.8191 2.60588 2.79025 3.07319C2.81492 3.52519 2.88659 3.96886 3.00525 4.40419L0.750252 6.19919C-0.231748 4.14719 -0.249748 2.08186 0.696252 0.00318869Z" fill="#FFC107"/>
  </g>
  <g transform="translate(8.12, 6.71)">
    <path fill-rule="evenodd" clip-rule="evenodd" d="M4.563 6.58369C3.86086 5.96447 3.12579 5.38362 2.361 4.84369C3.12767 4.30236 3.593 3.55969 3.757 2.61569H0V0.00668803C2.16667 -0.011312 4.33233 0.00702166 6.497 0.0616883C6.90767 2.29169 6.43333 4.30236 5.074 6.09369C4.91237 6.26551 4.74115 6.42905 4.563 6.58369Z" fill="#448AFF"/>
  </g>
  <g transform="translate(2, 9.32)">
    <path fill-rule="evenodd" clip-rule="evenodd" d="M2.255 0C3.075 2.038 4.57833 2.98933 6.765 2.854C7.37883 2.78294 7.96735 2.5685 8.483 2.228C9.24833 2.76933 9.98233 3.34933 10.685 3.968C9.57165 4.96845 8.15211 5.56207 6.658 5.652C6.31854 5.67914 5.97746 5.67914 5.638 5.652C3.09267 5.352 1.21333 4.066 0 1.794L2.255 0Z" fill="#43A047"/>
  </g>
</svg>
