<svg preserveAspectRatio="none" width="100%" height="100%" overflow="visible" style="display: block;" viewBox="0 0 13.3334 11.3439" fill="none" xmlns="http://www.w3.org/2000/svg">
<path id="Vector" d="M0 3.67744C1.36313e-05 2.93557 0.225062 2.21116 0.645422 1.59988C1.06578 0.988599 1.66168 0.519208 2.35441 0.253702C3.04713 -0.0118041 3.80411 -0.0609349 4.52534 0.112798C5.24658 0.286532 5.89815 0.674956 6.394 1.22677C6.42892 1.26411 6.47115 1.29388 6.51805 1.31424C6.56495 1.33459 6.61554 1.34509 6.66667 1.34509C6.7178 1.34509 6.76838 1.33459 6.81528 1.31424C6.86219 1.29388 6.90441 1.26411 6.93933 1.22677C7.43363 0.671369 8.08535 0.279681 8.80776 0.103837C9.53016 -0.0720074 10.289 -0.0236667 10.9832 0.242425C11.6775 0.508516 12.2743 0.979737 12.6941 1.59337C13.1139 2.207 13.3369 2.93394 13.3333 3.67744C13.3333 5.2041 12.3333 6.3441 11.3333 7.3441L7.672 10.8861C7.54778 11.0288 7.39462 11.1434 7.2227 11.2223C7.05078 11.3012 6.86403 11.3427 6.67486 11.3439C6.48569 11.3451 6.29843 11.306 6.12552 11.2293C5.95262 11.1525 5.79802 11.0399 5.672 10.8988L2 7.3441C1 6.3441 0 5.21077 0 3.67744Z" fill="currentColor"/>
</svg>
