<svg preserveAspectRatio="none" width="100%" height="100%" overflow="visible" style="display: block;" viewBox="0 0 14.3334 12.3439" fill="none" xmlns="http://www.w3.org/2000/svg">
<path id="Vector" d="M0.5 4.17744C0.500014 3.43557 0.725062 2.71116 1.14542 2.09988C1.56578 1.4886 2.16168 1.01921 2.85441 0.753702C3.54713 0.488196 4.30411 0.439065 5.02534 0.612798C5.74658 0.786532 6.39815 1.17496 6.894 1.72677C6.92892 1.76411 6.97115 1.79388 7.01805 1.81424C7.06495 1.83459 7.11554 1.84509 7.16667 1.84509C7.2178 1.84509 7.26838 1.83459 7.31528 1.81424C7.36219 1.79388 7.40441 1.76411 7.43933 1.72677C7.93363 1.17137 8.58535 0.779681 9.30776 0.603837C10.0302 0.427993 10.789 0.476333 11.4832 0.742425C12.1775 1.00852 12.7743 1.47974 13.1941 2.09337C13.6139 2.707 13.8369 3.43394 13.8333 4.17744C13.8333 5.7041 12.8333 6.8441 11.8333 7.8441L8.172 11.3861C8.04778 11.5288 7.89462 11.6434 7.7227 11.7223C7.55078 11.8012 7.36403 11.8427 7.17486 11.8439C6.98569 11.8451 6.79843 11.806 6.62552 11.7293C6.45262 11.6525 6.29802 11.5399 6.172 11.3988L2.5 7.8441C1.5 6.8441 0.5 5.71077 0.5 4.17744Z" stroke="currentColor" stroke-linecap="round" stroke-linejoin="round"/>
</svg>
