<svg viewBox="0 0 16 16" fill="none" xmlns="http://www.w3.org/2000/svg">
  <g transform="translate(2.67, 2) scale(0.8696, 0.9231)">
    <path d="M7.16667 0.5V12.5C4.83333 12.5 3.09967 9.44667 3.09967 9.44667H1.16667C0.989856 9.44667 0.820286 9.37643 0.695262 9.25141C0.570238 9.12638 0.5 8.95681 0.5 8.78V4.17C0.5 3.99319 0.570238 3.82362 0.695262 3.6986C0.820286 3.57357 0.989856 3.50333 1.16667 3.50333H3.09967C3.09967 3.50333 4.83333 0.5 7.16667 0.5Z" stroke="currentColor" stroke-linejoin="round"/>
  </g>
  <g transform="translate(12, 5) scale(0.5699, 0.8571)">
    <path d="M0.5 0.5C0.708249 0.686384 0.896387 0.894073 1.06134 1.11967C1.56515 1.81088 1.83557 2.64467 1.83334 3.5C1.83334 4.38467 1.55134 5.20234 1.074 5.86334C0.90603 6.09551 0.713591 6.30896 0.5 6.5" stroke="currentColor" stroke-linecap="round" stroke-linejoin="round"/>
  </g>
</svg>
